<mxfile host="app.diagrams.net" agent="Mozilla/5.0 (Macintosh; Intel Mac OS X 10_15_7) AppleWebKit/537.36 (KHTML, like Gecko) Chrome/138.0.0.0 Safari/537.36" version="28.0.6">
  <diagram name="Page-1" id="ydM4uLpn_bMe_xV5Nbt1">
    <mxGraphModel dx="976" dy="545" grid="1" gridSize="10" guides="1" tooltips="1" connect="1" arrows="1" fold="1" page="1" pageScale="1" pageWidth="827" pageHeight="1169" math="0" shadow="0">
      <root>
        <mxCell id="0" />
        <mxCell id="1" parent="0" />
        <mxCell id="ngB1li15whf8Q4nunsyD-12" value="" style="rounded=0;whiteSpace=wrap;html=1;strokeColor=#ffffff;fillColor=default;" parent="1" vertex="1">
          <mxGeometry x="80" y="120" width="590" height="140" as="geometry" />
        </mxCell>
        <mxCell id="ngB1li15whf8Q4nunsyD-4" value="Load&lt;br&gt;Balancer" style="rounded=0;whiteSpace=wrap;html=1;" parent="1" vertex="1">
          <mxGeometry x="374" y="130" width="80" height="120" as="geometry" />
        </mxCell>
        <mxCell id="ngB1li15whf8Q4nunsyD-5" value="CubeAPM" style="whiteSpace=wrap;html=1;aspect=fixed;" parent="1" vertex="1">
          <mxGeometry x="500" y="130" width="120" height="120" as="geometry" />
        </mxCell>
        <mxCell id="ngB1li15whf8Q4nunsyD-9" value="HTTPS&lt;br&gt;443" style="rounded=0;whiteSpace=wrap;html=1;" parent="1" vertex="1">
          <mxGeometry x="374" y="210" width="50" height="40" as="geometry" />
        </mxCell>
        <mxCell id="ngB1li15whf8Q4nunsyD-10" value="HTTP&lt;br&gt;3130" style="rounded=0;whiteSpace=wrap;html=1;" parent="1" vertex="1">
          <mxGeometry x="500" y="210" width="50" height="40" as="geometry" />
        </mxCell>
        <mxCell id="ngB1li15whf8Q4nunsyD-11" value="" style="endArrow=classic;html=1;rounded=0;exitX=1;exitY=0.5;exitDx=0;exitDy=0;entryX=0;entryY=0.5;entryDx=0;entryDy=0;" parent="1" edge="1">
          <mxGeometry width="50" height="50" relative="1" as="geometry">
            <mxPoint x="454" y="229.5" as="sourcePoint" />
            <mxPoint x="494" y="229.5" as="targetPoint" />
          </mxGeometry>
        </mxCell>
        <mxCell id="FyH4zrMeeF8NloVL9Lp1-29" value="" style="edgeStyle=orthogonalEdgeStyle;rounded=0;orthogonalLoop=1;jettySize=auto;html=1;" edge="1" parent="1" source="8x0kLq0rBs4-9IcZ4H1p-2" target="8x0kLq0rBs4-9IcZ4H1p-4">
          <mxGeometry relative="1" as="geometry" />
        </mxCell>
        <mxCell id="8x0kLq0rBs4-9IcZ4H1p-2" value="WAF" style="rounded=0;whiteSpace=wrap;html=1;" parent="1" vertex="1">
          <mxGeometry x="120" y="175" width="50" height="30" as="geometry" />
        </mxCell>
        <mxCell id="8x0kLq0rBs4-9IcZ4H1p-3" value="..." style="rounded=0;whiteSpace=wrap;html=1;" parent="1" vertex="1">
          <mxGeometry x="120" y="215" width="50" height="30" as="geometry" />
        </mxCell>
        <mxCell id="8x0kLq0rBs4-9IcZ4H1p-4" value="&lt;div&gt;Amazon&lt;div&gt;Data&lt;/div&gt;&lt;div&gt;Firehose&lt;/div&gt;&lt;/div&gt;" style="rounded=0;whiteSpace=wrap;html=1;" parent="1" vertex="1">
          <mxGeometry x="230" y="130" width="80" height="120" as="geometry" />
        </mxCell>
        <mxCell id="FyH4zrMeeF8NloVL9Lp1-28" value="" style="endArrow=classic;html=1;rounded=0;entryX=0;entryY=0.5;entryDx=0;entryDy=0;" edge="1" parent="1">
          <mxGeometry relative="1" as="geometry">
            <mxPoint x="310" y="229.5" as="sourcePoint" />
            <mxPoint x="370" y="229.5" as="targetPoint" />
          </mxGeometry>
        </mxCell>
        <mxCell id="FyH4zrMeeF8NloVL9Lp1-34" value="" style="endArrow=classic;html=1;rounded=0;" edge="1" parent="1">
          <mxGeometry relative="1" as="geometry">
            <mxPoint x="170" y="230" as="sourcePoint" />
            <mxPoint x="230" y="230" as="targetPoint" />
          </mxGeometry>
        </mxCell>
      </root>
    </mxGraphModel>
  </diagram>
</mxfile>
